<?xml version="1.0" encoding="utf-8"?>
<!-- Generator: Adobe Illustrator 17.0.0, SVG Export Plug-In . SVG Version: 6.00 Build 0)  -->
<!DOCTYPE svg PUBLIC "-//W3C//DTD SVG 1.1//EN" "http://www.w3.org/Graphics/SVG/1.1/DTD/svg11.dtd">
<svg version="1.1" id="图层_1" xmlns="http://www.w3.org/2000/svg" xmlns:xlink="http://www.w3.org/1999/xlink" x="0px" y="0px"
	 width="50px" height="50px" viewBox="0 0 50 50" enable-background="new 0 0 50 50" xml:space="preserve">
<g>
	<path fill="#FFFFFF" d="M25.218,13.806c-6.081,0-11.011,4.93-11.011,11.011s4.93,11.011,11.011,11.011s11.011-4.93,11.011-11.011
		C36.229,18.736,31.299,13.806,25.218,13.806z M25.218,34.446c-5.049,0-9.629-4.58-9.629-9.629s4.58-9.629,9.629-9.629
		s9.629,4.58,9.629,9.629C34.847,29.865,30.267,34.446,25.218,34.446z"/>
	<g>
		<path fill="#FFFFFF" d="M23.824,29.229c0-0.367,0.135-0.667,0.403-0.902c0.27-0.235,0.6-0.353,0.991-0.353
			c0.396,0,0.726,0.119,0.987,0.356c0.261,0.237,0.393,0.537,0.393,0.899c0,0.353-0.127,0.651-0.382,0.895
			c-0.254,0.245-0.56,0.367-0.917,0.367c-0.45,0-0.809-0.122-1.075-0.367C23.957,29.88,23.824,29.581,23.824,29.229z M26.452,18.947
			l-0.294,7.868h-1.923l-0.279-7.868H26.452z"/>
	</g>
</g>
</svg>
