<?xml version="1.0" encoding="utf-8"?>
<!-- Generator: Adobe Illustrator 17.0.0, SVG Export Plug-In . SVG Version: 6.00 Build 0)  -->
<!DOCTYPE svg PUBLIC "-//W3C//DTD SVG 1.1//EN" "http://www.w3.org/Graphics/SVG/1.1/DTD/svg11.dtd">
<svg version="1.1" id="图层_1" xmlns="http://www.w3.org/2000/svg" xmlns:xlink="http://www.w3.org/1999/xlink" x="0px" y="0px"
	 width="50px" height="50px" viewBox="0 0 50 50" enable-background="new 0 0 50 50" xml:space="preserve">
<g>
	<path fill="#FFFFFF" d="M38.033,36.262l-7.025-7.052c1.711-1.897,2.759-4.404,2.759-7.16c0-5.919-4.798-10.717-10.717-10.717
		c-5.919,0-10.717,4.798-10.717,10.717c0,5.919,4.798,10.717,10.717,10.717c1.441,0,2.808-0.294,4.061-0.813
		c0,0,0.395-0.121,0.395-0.54c0-0.311-0.253-0.564-0.564-0.564c-0.081,0-0.226,0.046-0.226,0.046
		c-1.131,0.47-2.364,0.744-3.666,0.744c-5.296,0-9.589-4.293-9.589-9.589c0-5.296,4.293-9.589,9.589-9.589
		c5.296,0,9.589,4.293,9.589,9.589c0,2.852-1.252,5.405-3.228,7.161l7.85,7.822c0.148,0.147,0.263,0.246,0.454,0.246
		c0.311,0,0.564-0.253,0.564-0.564C38.28,36.524,38.15,36.378,38.033,36.262L38.033,36.262z M38.033,36.262"/>
</g>
</svg>
