<?xml version="1.0" encoding="utf-8"?>
<!-- Generator: Adobe Illustrator 17.0.0, SVG Export Plug-In . SVG Version: 6.00 Build 0)  -->
<!DOCTYPE svg PUBLIC "-//W3C//DTD SVG 1.1//EN" "http://www.w3.org/Graphics/SVG/1.1/DTD/svg11.dtd">
<svg version="1.1" id="图层_1" xmlns="http://www.w3.org/2000/svg" xmlns:xlink="http://www.w3.org/1999/xlink" x="0px" y="0px"
	 width="47.994px" height="38.995px" viewBox="0 0 47.994 38.995" enable-background="new 0 0 47.994 38.995" xml:space="preserve">
<g>
	<path fill="#FFFFFF" d="M40.609,3.852h1.904c0.254,0.535,0.508,1.07,0.762,1.605c0.888-0.535,1.777-1.07,2.666-1.605v1.605H45.56
		v2.408c-0.904,0.081-0.942,0.166-1.523,0.401c0.269,0.749,0.378,1.569,0.381,2.809c-0.254-0.133-0.508-0.267-0.762-0.401
		c-0.616,0.521,0.416,0.755-1.142,1.204v0.803H41.37c-0.462,0.853-0.858,0.873-1.143,2.006c-1.381,0.293-1.677,0.997-2.666,1.605
		v-1.204h0.381v-1.204H37.18c-0.254,1-0.904,1.813-1.523,2.407h-0.762c-0.367,0.416,0.354,0.391,0.381,0.401
		c0.434,0.457,0.001,0.16,0.762,0.401v0.803H36.8c0.127-0.268,0.254-0.535,0.381-0.803c0.635,0.134,1.27,0.268,1.904,0.401v0.803
		h-1.142c-0.603,1.103-0.941,0.721-1.143,2.408c0.91,0.546,1.276,1.144,1.524,2.407h0.761c-0.127,0.401-0.254,0.802-0.381,1.204
		h0.381v0.401h-0.381v0.401c0.051,0.15,1.303,0.57,0.762,2.006c-0.254,0.134-0.508,0.267-0.762,0.401v1.204h-0.381
		c-0.354,0.609-0.31,0.98-0.381,2.006H37.18v0.803h-0.762c-0.269,1.239-0.742,1.707-1.904,2.006v0.401h-1.523v0.803
		c-0.726-0.396,0.082-0.235-0.381-0.803h-0.38v0.803c-0.542,0.491-2.291,0.656-3.047,0.802v0.401
		c1.01,0.914,0.594,1.098,0.381,2.408c-0.635,0.133-1.27,0.267-1.904,0.401v-1.605c0.381-0.134,0.762-0.268,1.143-0.402
		c-0.127-0.401-0.254-0.802-0.381-1.204c-0.888-0.134-1.777-0.268-2.666-0.401v-1.204c-1.632-0.289-2.375-0.029-4.57,0v1.605h-0.381
		c-0.713-1.095-0.458-0.381-1.523-0.803c-0.308-0.528-0.268-0.473-0.762-0.803v-0.401h0.38c0.015-0.159-0.336-0.901-0.381-1.605
		h-1.143c0.171-1.256,0.281-1.222,0.762-2.006h0.381c0.429-1.033-0.26-2.1-0.381-2.809c-0.434,0.457-0.152,0.001-0.381,0.802
		c-1.043-0.259-0.867-0.525-1.904-0.802c-0.607,0.764-1.424,1.083-2.666,1.204c-0.36-0.723-0.527-0.632-0.761-1.605
		c-0.635-0.134-1.27-0.267-1.904-0.401v0.803c-0.708-0.23-0.981-0.165-0.381-0.803c-0.889-0.134-1.778-0.268-2.666-0.401
		c-0.127-0.268-0.254-0.535-0.381-0.803c-0.254-0.134-0.508-0.268-0.762-0.401c-0.954-1.368-0.546-2.099-2.666-2.407
		c-0.396-1.571-1.071-1.393-1.143-3.611c0.254,0.134,0.508,0.268,0.762,0.401V16.69H2.904c0.127-0.268,0.254-0.535,0.381-0.803
		H2.904c-0.865-1.116-1.036-0.234-1.142-2.407H1v-0.8c0.254,0.133,0.508,0.267,0.762,0.401v-1.204
		C1.107,11.425,1.245,11.623,1,10.673c0.842-0.478,1.138-0.935,2.285-1.204v0.803c1.269-0.268,2.539-0.535,3.808-0.803
		C7.501,7.824,8.041,8.463,7.474,6.66h1.142v-0.4C8.87,6.393,9.124,6.527,9.378,6.661V5.858C9.632,5.724,9.886,5.59,10.14,5.457
		V5.056c0.29-0.478-0.031-0.035,0.381-0.401C11,5.421,10.907,5.32,12.045,5.457V4.253h0.381c0.444-0.546,0.695-0.613,1.523-0.803
		c0.476,1.885,1.631,1.598,1.904,4.013c-0.434,0.457-0.152,0.001-0.381,0.803c1.939,0.332,3.053,1.218,3.427,3.21
		c1.143,0.134,2.285,0.267,3.428,0.401v0.401h0.762v0.401c0.635,0.133,1.27,0.267,1.904,0.401v0.402
		c0.381-0.134,0.762-0.268,1.143-0.402v-0.4h2.666c0.254-0.401,0.508-0.803,0.762-1.204h0.762c0.116-0.164-0.613-0.903-0.381-1.605
		h0.381V9.47c1.578,0.594,1.481-0.021,3.047-0.402V8.266c0.762-0.134,1.523-0.268,2.285-0.401c-0.127-0.401-0.254-0.802-0.381-1.204
		c-1.458,0.116-1.748,0.525-2.285,0h-0.381c0.127-0.669,0.254-1.337,0.381-2.006h1.524c0.127-0.401,0.254-0.803,0.381-1.204h0.381
		V2.648h0.381c0.262-0.771-0.199-1.225-0.381-1.605h0.381c0.665-0.822,1.543-0.827,3.047-0.803
		C39.357,1.51,40.258,2.214,40.609,3.852L40.609,3.852z M39.466,30.335c0.254,0.134,0.508,0.268,0.762,0.401
		c-0.254,1.204-0.508,2.408-0.762,3.611h-0.381c-0.526-1.048-0.674-0.679-0.761-2.408C38.788,31.543,39.173,30.9,39.466,30.335
		L39.466,30.335z"/>
</g>
</svg>
