<?xml version="1.0" encoding="utf-8"?>
<!-- Generator: Adobe Illustrator 17.0.0, SVG Export Plug-In . SVG Version: 6.00 Build 0)  -->
<!DOCTYPE svg PUBLIC "-//W3C//DTD SVG 1.1//EN" "http://www.w3.org/Graphics/SVG/1.1/DTD/svg11.dtd">
<svg version="1.1" id="图形" xmlns="http://www.w3.org/2000/svg" xmlns:xlink="http://www.w3.org/1999/xlink" x="0px" y="0px"
	 width="24px" height="28.917px" viewBox="0 0 24 28.917" enable-background="new 0 0 24 28.917" xml:space="preserve">
<path fill="#FFFFFF" d="M500.125,515.125l-5.625,4.958c0,0-1.958,4.917-1.958,5.125s0.208,3.458,0.208,3.458l1.5,3l2.625,2.5
	c0,0,3.042,2.583,3.042,2.708s4.667-1.833,4.667-1.833l4.042-3.417l1.792-5.083l-0.542-3.375l-2.417-3.5l-3.583-4l-2.396-1.417
	L500.125,515.125z"/>
<path fill="#BA744D" d="M11.983,1.875l-4.775,4.5L3.75,10.792l-1.083,3.667L3.5,18.75l2.625,3.198c0,0,3.75,3.802,3.833,3.969
	c0.083,0.167,2.042-0.208,2.042-0.208L15,24.292l4.458-5.417L21.25,15.5l-1.375-5.708l-3.458-3.625L11.983,1.875z"/>
<g>
	<path fill="#FFFFFF" d="M12.09,0.551L4.474,7.678l0.001,0.001L4.311,7.833c-3.944,3.692-3.968,9.676-0.071,13.323l0.155,0.145
		l-0.013,0.012l6.604,7.053l8.399-7l0,0l0.303-0.284c3.944-3.692,3.972-9.672,0.075-13.319l-0.16-0.15l0.016-0.015L12.09,0.551z
		 M6.156,9.561l0.165-0.154l0,0l5.748-5.38l5.684,5.32l0.011-0.01l0.16,0.15c2.894,2.708,2.849,7.127-0.08,9.868l-0.161,0.151l0,0
		l-6.673,5.385l-4.758-5.325l-0.014,0.013l-0.155-0.145C3.186,16.725,3.227,12.303,6.156,9.561L6.156,9.561z"/>
	<path fill="#FFFFFF" d="M10.608,7.618c-0.323,0.564,0.103,1.635,0.368,2.247c0.741,1.716,1.061,3.565,0.775,5.868l-2.918-2.731
		c-0.416-0.39-1.102-0.386-1.523,0.009c-0.421,0.394-0.425,1.036-0.009,1.425l3.519,3.294c0.14,0.131,0.31,0.217,0.491,0.259
		c-0.162,0.627-0.363,1.285-0.604,1.98c-0.105,0.303-0.313,1.24-0.069,1.475c1.049,1.014,1.637,0.245,1.957-0.128
		c0.013-0.015,0.025-0.03,0.035-0.046c0.082-0.122,0.155-0.288,0.175-0.333c0.505-1.119,0.85-2.195,1.071-3.215
		c0.093-0.044,0.18-0.103,0.257-0.175l2.542-2.379c0.397-0.371,0.401-0.976,0.009-1.343l-0.017-0.016
		c-0.392-0.367-1.038-0.363-1.434,0.008l-1.023,0.958c0.033-3.85-1.527-6.442-1.762-6.821c-0.019-0.031-0.039-0.06-0.062-0.088
		C11.467,6.702,10.975,6.977,10.608,7.618z"/>
</g>
</svg>
